<svg xmlns="http://www.w3.org/2000/svg" width="230" height="170.952" viewBox="0 0 230 170.95236"><g transform="translate(-337.194 -9.927)"><ellipse cx="422.751" cy="35.403" fill="#fff" stroke="#112b00" rx="14.5" ry="14.976"/><g font-size="21" font-family="Arial" letter-spacing="0" word-spacing="0"><text x="415.537" y="42.919"><tspan x="415.537" y="42.919">B</tspan></text><ellipse cx="422.194" cy="95.403" fill="#fff" stroke="#112b00" rx="14.5" ry="14.976"/><text x="414.504" y="102.919"><tspan x="414.504" y="102.919">C</tspan></text><ellipse cx="422.194" cy="155.403" fill="#fff" stroke="#112b00" rx="14.5" ry="14.976"/><text x="414.36" y="162.919"><tspan x="414.36" y="162.919">D</tspan></text><ellipse cx="482.194" cy="35.403" fill="#fff" stroke="#112b00" rx="14.5" ry="14.976"/><text x="474.924" y="42.919"><tspan x="474.924" y="42.919">E</tspan></text><ellipse cx="482.194" cy="95.403" fill="#fff" stroke="#112b00" rx="14.5" ry="14.976"/><text x="475.401" y="102.919"><tspan x="475.401" y="102.919">F</tspan></text><ellipse cx="542.194" cy="35.403" fill="#fff" stroke="#112b00" rx="14.5" ry="14.976"/><text x="534.124" y="42.919"><tspan x="534.124" y="42.919">G</tspan></text><ellipse cx="542.194" cy="155.403" fill="#fff" stroke="#112b00" rx="14.5" ry="14.976"/><text x="534.616" y="162.919"><tspan x="534.616" y="162.919">H</tspan></text><ellipse cx="362.194" cy="95.403" fill="#fff" stroke="#f00" ry="14.976" rx="14.5"/><text x="355.191" y="102.919"><tspan x="355.191" y="102.919">A</tspan></text></g><path fill="none" stroke="#000" stroke-width="2" d="M376.7 95.4h31m4.24 49.75l-39.5-39.5M436.7 95.4h31m14.5-45.5v31m-109.75 4.25l40.05-39.5m129.7 4.25v91M437.25 35.4h30.44m4.24 70.26l-39.5 39.5"/></g></svg>